<?xml version="1.0" encoding="UTF-8"?>
<!DOCTYPE svg PUBLIC "-//W3C//DTD SVG 1.1//EN" "http://www.w3.org/Graphics/SVG/1.1/DTD/svg11.dtd">
<!-- Creator: CorelDRAW X8 -->
<svg xmlns="http://www.w3.org/2000/svg" xml:space="preserve" width="400px" height="130px" version="1.1" style="shape-rendering:geometricPrecision; text-rendering:geometricPrecision; image-rendering:optimizeQuality; fill-rule:evenodd; clip-rule:evenodd"
viewBox="0 0 400 130"
 xmlns:xlink="http://www.w3.org/1999/xlink">
 <defs>
  <style type="text/css">
   <![CDATA[
    .fil0 {fill:black}
    .fil2 {fill:#D95350}
    .fil3 {fill:white}
    .fil1 {fill:#4A4A4A;fill-rule:nonzero}
   ]]>
  </style>
 </defs>
 <g id="Layer_x0020_1">
  <metadata id="CorelCorpID_0Corel-Layer"/>
  <g id="Page-1">
   <g id="Artboard-Copy-6">
    <path id="Опердог" class="fil0" d="M144 36l3 1 2 0c0,0 1,0 2,0 0,1 1,1 1,1 1,0 1,0 1,1 1,0 2,0 3,1 1,0 2,1 3,1 0,1 1,2 1,3 1,1 1,1 2,2 2,1 3,3 4,4 0,2 0,3 0,4l0 6 0 2c0,1 0,2 -1,3 0,2 -1,3 -1,4 -1,2 -2,3 -2,4 -1,1 -1,2 -1,2 -1,2 -1,2 -2,3 -1,1 -2,2 -3,2 -2,1 -3,2 -5,3 -1,1 -3,2 -4,2 -1,0 -2,0 -2,0 -1,-1 -2,-1 -3,-1 0,0 0,0 -1,0 0,0 0,0 -1,1 0,0 -1,0 -1,0l-2 0c0,0 -1,0 -1,-1 -1,0 -2,0 -3,0 0,-1 -1,-1 -2,-1 -1,-1 -3,-2 -5,-3 -1,0 -3,-2 -3,-4 -2,-3 -3,-6 -4,-9 -1,-3 -1,-6 -1,-9 0,0 0,-1 0,-1 0,-1 0,-1 0,-2 0,0 1,-1 1,-1 0,-1 0,-1 1,-2 0,-1 0,-2 0,-2 0,-1 1,-2 1,-3 0,0 0,0 1,-1 0,-1 1,-2 2,-3 0,-1 1,-2 2,-3 1,-1 2,-1 2,-1l3 -1c0,0 1,0 2,0 0,0 1,-1 1,-1 1,0 2,-1 2,-1 1,0 1,0 2,0l6 0zm-8 7c-1,0 -2,0 -3,2 -1,1 -1,2 -2,4 -1,2 -2,3 -2,5 -1,2 -1,3 -1,3l0 7c0,0 1,2 2,3 1,2 2,4 3,5 2,2 3,3 5,5 2,1 3,1 5,1l1 0c2,0 3,0 4,-1 2,0 3,-1 4,-2 1,-1 2,-2 3,-4 1,-1 1,-3 1,-5l0 -8c0,-1 0,-2 0,-2 0,-1 -1,-2 -1,-2 -1,-1 -1,-2 -2,-3 -1,-1 -2,-2 -2,-3 -1,0 -1,-1 -2,-1 0,-1 -1,-1 -2,-2 0,0 -1,-1 -1,-1 -1,0 -2,-1 -2,-1l-2 0c0,0 -1,0 -2,0 0,0 -1,0 -1,0 -1,0 -2,0 -3,0zm49 1c0,0 1,1 1,1 1,0 1,1 1,1 0,1 0,1 0,2 0,1 0,1 0,2 0,1 0,1 0,2 -1,1 -1,1 -1,1l1 2 1 1c0,0 0,0 1,-1 1,0 1,-1 2,-2 1,-1 2,-2 3,-3 1,-1 2,-2 3,-3 1,-1 2,-2 2,-3 1,0 2,-1 2,-1 0,0 1,0 1,1 0,1 1,1 1,2 0,1 1,1 1,2 0,1 0,2 0,4 -1,1 -1,3 -1,4 -1,2 -1,4 -1,6 -1,1 -1,3 -2,4 0,2 0,3 -1,4 0,1 0,1 0,2 0,0 0,0 0,0 0,1 0,1 0,1 0,0 0,1 0,1 0,0 1,0 1,0l1 -1c0,0 1,0 1,0 0,0 1,-1 1,-1 1,-1 2,-1 3,-2 1,0 1,-1 1,-1 1,0 1,1 2,1 0,0 0,1 0,1 0,0 0,0 0,1 -1,0 -1,1 -2,2 0,0 -1,1 -1,1 -1,1 -1,1 -1,1 0,0 -1,1 -1,1 0,1 -1,1 -1,1 -1,1 -2,2 -2,3 -1,0 -1,1 -2,2 -1,1 -1,1 -2,2 -1,0 -2,1 -3,1 0,0 -1,-1 -1,-1 -1,0 -1,0 -1,-1 -1,0 -1,-1 -1,-1 0,-1 0,-1 0,-2l-1 -3c1,-1 1,-3 2,-5 0,-1 1,-3 1,-5 1,-1 1,-2 1,-3 1,-2 1,-3 1,-4l0 -1c0,-1 -1,-2 -2,-2 -1,0 -2,0 -3,1 -1,0 -2,1 -2,2 -1,1 -1,2 -1,3 -1,1 -1,2 -2,3 0,1 0,1 0,1 0,1 0,1 0,1 0,1 0,2 -1,2 0,1 0,2 0,2 -1,2 -1,4 -2,6 -1,2 -1,3 -2,5 1,0 1,1 0,1 0,0 0,0 -1,0 0,0 -1,0 -1,0 -1,0 -1,0 -2,-1 -1,0 -1,0 -2,0 0,-1 0,-1 0,-2 -1,-1 0,-2 0,-3 0,-1 1,-2 1,-3 0,-1 1,-1 1,-2 1,-1 1,-1 1,-2l0 -3 -1 -1c0,0 1,-1 1,-1 0,-1 0,-1 1,-2 0,-1 0,-1 0,-2 0,0 1,0 1,-1l0 -1 -1 -3c0,0 0,-1 0,-1 0,-1 0,-1 -1,-1 0,0 0,0 -1,1 0,0 -1,0 -1,0 0,0 -1,0 -1,1 -1,0 -1,0 -1,0l-1 0c0,0 0,-1 0,-1 0,-1 0,-2 0,-2 2,-2 3,-4 4,-5 2,-2 3,-3 5,-4 1,0 1,-1 2,-1 0,0 1,-1 2,-1zm43 -1c1,0 2,1 3,1 0,1 1,1 2,2 0,1 0,1 1,2 0,1 0,2 0,3 0,2 -1,3 -2,4 -1,1 -2,2 -3,3 -1,0 -3,1 -4,2 -1,0 -2,1 -3,2 -1,0 -2,1 -3,2 -1,1 -1,2 -1,3l0 4c0,1 0,2 1,3 0,1 1,1 2,1 0,0 0,0 0,0 1,0 1,0 2,-1 0,0 1,0 1,-1 1,0 1,0 1,-1 1,0 2,0 2,-1 1,0 1,0 1,0 1,0 1,0 1,0 1,1 1,1 1,2 0,1 -1,2 -2,3 -1,2 -2,3 -3,4 -1,1 -2,2 -3,2 -2,1 -2,2 -3,2 -1,1 -1,1 -2,1 -1,0 -2,0 -3,0 0,0 -1,0 -1,0 -1,-1 -1,-1 -2,-2 0,0 -1,-1 -1,-1 0,-1 0,-1 0,-2l0 -1c0,-1 0,-1 0,-2 -1,0 -1,0 -1,0l0 -2 0 -1c0,-1 0,-1 1,-2 0,-1 0,-2 0,-3 0,-2 0,-3 0,-4 1,-1 1,-2 1,-2 0,0 0,0 0,0 0,-1 0,-1 0,-1 0,0 0,0 0,-1 0,0 0,0 0,0 0,-1 0,-2 1,-3l0 -1 1 -3c1,-1 1,-2 2,-3 1,-2 3,-3 4,-4 2,-1 3,-2 5,-3 1,0 2,-1 4,-1zm-4 7c-1,0 -1,0 -1,1 0,0 -1,0 -1,1 0,1 -1,1 -1,2 0,0 0,1 0,1 0,0 0,1 0,1 0,0 0,0 0,1 0,0 0,0 0,0 1,0 1,0 2,0 0,0 1,-1 1,-1 1,0 2,-1 2,-1 1,-1 1,-1 1,-2l0 -1c0,-1 0,-1 0,-1 -1,0 -1,0 -1,-1 0,0 -1,0 -1,0l-1 0zm25 -15c1,0 1,0 1,1 1,0 1,0 2,0 0,1 0,1 1,1 0,1 0,1 0,2 0,1 -1,2 -1,3 -1,1 -1,2 -1,3 -1,1 -1,2 -1,2 0,0 -1,1 -1,2 -1,0 -1,1 -2,2 0,1 -1,2 -1,2 0,1 -1,2 -1,2l1 1c1,0 2,0 3,-1 1,-2 2,-3 4,-4 1,-2 2,-3 3,-4 2,-1 3,-2 3,-2 1,0 2,1 2,2 1,1 1,2 2,3 0,1 0,2 0,3 0,1 0,1 0,1 0,1 0,1 0,2 -1,1 -1,2 -1,3 0,0 0,0 0,1 0,0 0,0 0,0 0,0 0,0 0,1 0,0 0,1 -1,2 0,1 0,3 -1,4 -1,1 -1,2 -1,3 -1,1 -1,1 -1,2 -1,1 -2,1 -2,2 -1,1 -2,2 -3,2 -1,1 -1,2 -3,2 -1,1 -2,2 -2,3 -1,1 -2,2 -3,2 -1,1 -2,2 -3,2 -1,1 -1,2 -2,2 0,1 0,2 0,4l0 1c0,1 0,2 0,2 0,1 -1,1 -1,2 0,1 0,1 0,2 0,1 0,2 0,3 0,1 0,2 -1,2 0,1 0,1 0,2 0,0 0,0 0,1 0,0 0,0 -1,0l0 2c0,1 0,2 0,3l0 2c0,1 1,2 1,2 1,0 2,1 2,1l2 0c1,0 2,0 2,1 1,0 1,1 1,2 0,0 0,1 -1,1 0,1 0,1 -1,1 -1,0 -2,1 -3,1 -1,1 -2,1 -3,1l-3 0c-1,0 -3,0 -4,0 -1,0 -2,1 -4,1 0,0 -1,0 -1,0 0,0 -1,0 -1,0l-1 0c0,1 0,1 -1,1 0,0 0,-1 -1,-1 0,0 0,0 0,-1 -1,0 -1,-1 -1,-1 0,0 0,-1 0,-1 0,0 0,-1 1,-1 0,-1 0,-1 1,-1 0,0 1,0 1,0l2 0c0,0 0,0 1,0 0,-1 0,-1 1,-1 0,0 0,0 0,0 0,-1 1,-1 1,-1 0,-1 0,-1 0,-2 0,-1 0,-1 1,-2 0,0 0,-1 0,-2 0,0 0,0 0,-1l0 0c0,-1 1,-1 1,-2 0,-1 0,-2 0,-3 1,-1 1,-3 1,-4 0,-1 1,-1 1,-1 0,0 0,-1 0,-1 0,0 0,0 0,-1 0,0 0,-1 0,-2 0,-1 1,-2 1,-4l0 -3 1 -5 1 -3c0,0 0,0 0,0 0,-1 0,-1 1,-2 0,0 0,-1 0,-1 0,-1 0,-1 0,-1 0,-1 0,-2 1,-3 0,0 0,-1 0,-2 0,0 0,-1 0,-2 0,0 0,-1 0,-2l1 -2c0,0 0,-1 1,-1l0 -5c0,-1 -1,-2 -2,-2 0,0 -1,0 -1,1 -1,0 -1,1 -2,1 -1,1 -2,2 -3,2 0,0 0,0 0,0 0,0 0,0 0,-1 0,0 0,0 0,0 0,-1 0,-2 1,-3 0,-1 1,-2 2,-3 1,-2 2,-3 3,-5 1,-1 3,-3 4,-4 1,-2 2,-3 3,-5 1,-1 2,-3 3,-5 0,0 1,0 1,0 0,-1 1,-1 1,-1zm4 23c-1,0 -1,0 -2,1 -1,0 -1,0 -2,1 -1,0 -1,1 -2,1 0,1 0,1 0,1 -1,2 -2,4 -2,5 -1,1 -1,3 -2,4l0 3c0,0 0,1 0,1 0,1 1,1 2,1 1,0 1,0 2,0 1,-1 1,-1 2,-2 1,-1 1,-2 2,-2 1,-1 1,-1 1,-2 1,0 1,0 2,-1 0,-1 0,-1 0,-1 0,-1 1,-1 1,-2 0,0 -1,0 -1,-1 0,0 0,0 0,0 0,-1 0,-1 0,-1l0 -3c0,0 0,-1 0,-1 0,-1 0,-1 0,-1 -1,-1 -1,-1 -1,-1zm41 -25c0,0 0,0 0,1 0,0 0,0 0,0 0,1 0,2 0,3 0,0 0,1 0,2 0,0 0,0 -1,1 0,0 0,1 0,1l0 2c0,0 0,1 0,1 0,1 0,1 -1,1l0 2c0,0 0,0 0,0 0,0 0,0 0,0 0,1 0,1 0,1 0,0 0,0 0,0 0,1 0,1 0,1 0,1 0,1 0,2 -1,2 -1,3 -1,4 0,2 -1,3 -1,3l0 2c0,1 -1,3 -1,5 -1,2 -2,4 -3,5 0,1 -1,2 -1,4 -1,1 -1,2 -2,3 0,1 -1,1 -1,2 -1,0 -1,1 -2,1 -1,1 -1,2 -2,2 0,1 -1,1 -2,1 -1,1 -3,2 -4,2 -1,0 -3,1 -4,1 -1,0 -1,-1 -2,-1 0,0 -1,-1 -1,-2 0,0 0,-1 -1,-2 0,-1 0,-1 0,-2l0 -6c0,0 0,-1 0,-1 0,0 0,-1 0,-2 0,-2 0,-4 1,-6 1,-3 2,-5 3,-7 2,-3 3,-5 4,-6 1,-2 2,-3 3,-4 1,0 2,-1 3,-2 1,-1 2,-2 3,-2 1,0 1,0 2,1 0,0 1,0 2,0 0,0 1,0 1,1 0,0 1,1 1,2 0,-2 0,-3 1,-5 0,-1 0,-2 0,-3l-1 -3c0,0 0,-1 0,-1 0,0 0,0 0,0 0,-1 0,-1 0,-1 0,-1 -1,-3 -1,-3 -1,-1 -1,-2 -1,-3 0,-1 -1,-2 -2,-3 0,-1 -1,-1 -2,-2 0,0 -1,-1 -1,-1l-2 0c0,0 -1,0 -1,0 -1,0 -1,0 -1,0 -2,-1 -3,-2 -3,-2 -1,-1 -2,-1 -2,-2 -1,-1 -1,-2 -1,-2 0,-1 0,-2 0,-3 0,-1 1,-2 2,-2 0,-1 1,-2 2,-3 1,0 2,-1 3,-1 1,1 2,1 4,2 0,0 1,1 2,1 1,1 2,1 2,1 0,0 0,0 0,0 1,0 1,1 1,1 0,0 1,0 1,0 0,1 0,1 0,1 1,0 1,0 1,1 1,0 1,0 1,1 0,0 0,1 0,1 0,0 0,1 1,1 0,0 0,0 1,1 0,1 1,2 1,2 0,1 0,2 1,3 0,0 0,1 0,1l0 2 1 7zm-13 20c-1,0 -2,1 -3,1 -1,1 -1,2 -2,3 -1,1 -2,2 -3,3 0,1 -1,2 -1,2 0,1 0,2 -1,3 0,1 0,2 0,3 0,1 0,1 0,1l0 2c0,0 0,0 0,1 0,0 0,1 0,1 0,1 1,1 1,2 0,0 1,0 1,0 1,0 2,-1 3,-1 0,-1 1,-1 1,-2 1,0 1,-1 2,-1 0,-1 0,-2 1,-3 1,-1 1,-2 1,-3 0,-1 1,-1 1,-2 0,0 0,0 0,-1l1 -2c0,0 0,-1 0,-2 0,0 0,-1 0,-2 0,-1 0,-1 0,-2 -1,-1 -1,-1 -2,-1zm28 -10c1,0 2,0 3,1 1,0 2,0 3,0 1,0 1,0 1,1 1,1 1,2 1,2 1,1 1,1 1,1 0,1 1,1 1,2 0,0 1,1 1,1 0,0 0,1 0,1l-1 8c0,1 0,3 -1,5 0,2 -1,4 -3,5 0,1 -1,1 -1,2 0,0 0,1 0,2 -1,0 -1,1 -1,1 0,1 -1,1 -1,2 0,0 -1,1 -1,1 -1,1 -1,2 -2,2 0,1 -1,1 -1,2 -1,0 -1,1 -2,1 -1,0 -1,1 -2,1 -1,0 -1,1 -2,1 0,0 -1,0 -1,0 0,1 -1,1 -2,1 0,0 -1,-1 -2,-1 -1,0 -1,-1 -2,-2 0,0 -1,-1 -1,-2 -1,-1 -1,-1 -1,-2l0 -6c0,0 0,-1 0,-1 0,0 0,-1 0,-2 -1,-2 0,-4 1,-6 1,-3 2,-5 3,-7 1,-3 2,-5 3,-6 1,-2 2,-3 3,-4 1,0 1,0 2,-1 0,0 0,-1 1,-1 0,-1 1,-1 1,-1 1,0 1,-1 2,-1zm0 10c-1,0 -2,1 -3,1 -1,1 -1,2 -2,3 -1,1 -2,2 -2,3 -1,1 -1,2 -2,2l0 3c-1,1 -1,2 -1,3 0,1 0,1 0,1l0 2c0,0 0,0 0,1 1,0 1,1 1,1 0,1 1,1 1,2 0,0 1,0 1,0 1,0 3,-1 4,-1 0,-1 1,-1 2,-2 1,0 1,-1 1,-1 1,-1 1,-2 2,-3 0,-1 0,-2 1,-3 0,-1 0,-1 0,-2 1,0 1,0 1,-1l0 -2c0,0 0,-1 0,-2 -1,0 -1,-1 -1,-2 0,-1 -1,-1 -1,-2 -1,-1 -1,-1 -2,-1zm27 -10c1,0 1,0 2,0 1,0 1,1 2,1 1,0 1,1 2,1 0,0 0,1 0,1l0 3c0,0 0,0 1,0 0,1 0,1 0,1 0,0 0,1 0,1 0,1 0,1 0,2 0,0 0,0 0,1 -1,0 -1,0 -1,1 0,0 0,1 0,1l-1 2c0,1 0,1 -1,2 0,0 0,0 0,0l-1 2c-1,1 -1,2 -1,2 -1,0 -1,1 -1,2 0,0 0,1 0,1 0,1 -1,2 -1,2 0,1 0,1 0,2 -1,0 -1,1 -1,2 0,0 0,1 0,1 1,1 1,1 1,1 1,0 2,0 2,-1 1,0 2,-1 2,-1 1,-1 2,-1 2,-2 1,-1 1,-1 1,-1 0,0 1,-1 1,-1 0,0 1,0 1,0l2 0c0,0 0,0 0,0 0,1 0,1 0,2 0,0 0,0 0,1 -1,1 -2,2 -2,3 -1,1 -2,2 -2,3 -1,1 -1,1 -2,2 0,0 0,1 -1,1 -1,1 -2,2 -3,2 -1,1 -1,1 -3,2 -1,0 -1,1 -2,1 0,0 -1,-1 -2,-1 0,0 -1,0 -2,-1 0,0 -1,-1 -2,-1 0,-1 0,-1 0,-2 0,0 0,0 0,0 -1,0 -1,0 -1,-1 0,0 0,-1 0,-1 0,0 0,0 0,-1l0 -1 1 -3c0,0 0,-1 0,-2 0,0 1,-1 1,-2 0,-1 0,-1 0,-2 1,0 1,-1 2,-2l0 -1c0,-1 1,-1 1,-2 0,-1 1,-2 1,-3 1,0 1,-1 2,-2 0,-1 0,-2 0,-3 0,-1 0,-1 0,-1 -1,0 -1,0 -2,0 0,0 -1,0 -1,0 -1,0 -1,0 -1,0 -1,0 -1,1 -2,1 0,1 -1,1 -1,2 -1,0 -2,1 -3,1 0,1 -1,1 -2,1 0,0 0,0 0,-1 0,0 0,0 0,-1 0,0 0,0 0,0 0,-1 0,-1 0,-1 0,-1 1,-3 2,-4 2,-2 3,-3 5,-4 1,-2 3,-3 5,-4 1,-1 2,-1 3,-1z"/>
    <path id="Владивосток" class="fil1" d="M264 120l0 -17 6 0c1,0 2,0 3,1 1,0 1,0 2,1 0,1 0,2 0,2 0,1 0,2 0,2 -1,1 -1,1 -2,2 1,0 2,1 2,1 1,1 1,2 1,3 0,1 0,1 0,2 -1,1 -1,1 -2,1 0,1 -1,1 -1,1 -1,0 -2,1 -3,1l-6 0zm2 -10l3 0c1,0 2,0 2,0 1,0 1,-1 2,-1 0,0 0,-1 0,-1 0,-1 0,-1 0,-2 -1,0 -1,-1 -1,-1 -1,0 -2,0 -3,0l-3 0 0 5zm0 8l4 0c1,0 1,0 1,0 1,-1 1,-1 2,-1 0,0 0,0 0,-1 1,0 1,-1 1,-1 0,-1 0,-1 -1,-2 0,0 0,-1 -1,-1 -1,0 -1,0 -2,0l-4 0 0 6z"/>
    <path id="1" class="fil1" d="M280 108l9 0 0 12 -2 0 0 -11 -5 0 0 6c0,2 0,3 0,3 0,0 -1,1 -1,1 -1,0 -1,1 -2,1 0,0 -1,0 -1,0l0 -2 0 0c1,0 1,0 1,0 0,0 1,-1 1,-1 0,0 0,-1 0,-2l0 -7z"/>
    <path id="2" class="fil1" d="M300 118c-1,1 -2,1 -2,1 -1,1 -2,1 -2,1 -2,0 -3,-1 -3,-1 -1,-1 -2,-2 -2,-3 0,0 1,-1 1,-1 0,-1 0,-1 1,-1 0,-1 1,-1 1,-1 1,0 1,0 2,0 2,-1 3,-1 4,-1 0,0 0,0 0,-1 0,0 0,-1 -1,-1 0,-1 -1,-1 -2,-1 -1,0 -2,0 -2,1 -1,0 -1,0 -1,1l-2 0c0,-1 0,-2 1,-2 0,-1 1,-1 1,-1 1,-1 2,-1 3,-1 1,0 2,0 3,1 0,0 1,0 1,1 0,0 1,0 1,1 0,0 0,1 0,2l0 3c0,1 0,3 0,3 0,1 0,1 0,2l-2 0c0,-1 0,-1 0,-2zm0 -4c-1,0 -2,0 -4,0 0,0 -1,1 -1,1 -1,0 -1,0 -1,0 0,1 0,1 0,1 0,1 0,1 0,2 1,0 1,0 2,0 1,0 2,0 2,0 1,-1 1,-1 1,-2 1,0 1,-1 1,-2l0 0z"/>
    <path id="3" class="fil1" d="M307 108l8 0 0 10 1 0 0 5 -2 0 0 -3 -9 0 0 3 -2 0 0 -5 1 0c2,-2 3,-5 3,-10zm1 1c0,4 -1,7 -2,9l7 0 0 -9 -5 0z"/>
    <polygon id="4" class="fil1" points="318,108 320,108 320,117 326,108 328,108 328,120 326,120 326,110 321,120 318,120 "/>
    <path id="5" class="fil1" d="M331 108l5 0c1,0 2,0 2,0 1,0 1,0 2,1 0,0 0,1 0,2 0,0 0,1 0,1 0,1 -1,1 -1,1 1,1 1,1 1,1 1,1 1,1 1,2 0,1 -1,2 -1,3 -1,0 -2,1 -3,1l-6 0 0 -12zm2 5l2 0c1,0 2,0 2,0 0,-1 1,-1 1,-1 0,0 0,-1 0,-1 0,-1 0,-1 0,-1 -1,-1 -2,-1 -3,-1l-2 0 0 4zm0 5l3 0c1,0 2,0 2,-1 1,0 1,0 1,-1 0,0 0,-1 0,-1 -1,0 -1,0 -1,-1 -1,0 -1,0 -2,0l-3 0 0 4z"/>
    <path id="6" class="fil1" d="M342 114c0,-3 1,-4 2,-5 1,-1 2,-2 4,-2 2,0 3,1 4,2 1,1 2,3 2,4 0,2 -1,3 -1,4 -1,1 -1,2 -2,2 -1,1 -2,1 -3,1 -2,0 -3,-1 -4,-2 -1,-1 -2,-2 -2,-4zm2 0c0,1 1,2 1,3 1,1 2,1 3,1 1,0 2,0 2,-1 1,-1 1,-2 1,-3 0,-2 0,-3 -1,-4 0,-1 -1,-1 -2,-1 -1,0 -2,0 -3,1 0,1 -1,2 -1,4z"/>
    <path id="7" class="fil1" d="M364 115l2 0c-1,2 -1,3 -2,4 -1,0 -2,1 -3,1 -2,0 -3,-1 -4,-2 -1,-1 -2,-2 -2,-4 0,-2 1,-3 1,-4 0,-1 1,-1 2,-2 1,0 2,-1 3,-1 1,0 2,1 3,1 1,1 1,2 1,3l-1 0c-1,0 -1,-1 -1,-1 -1,-1 -2,-1 -2,-1 -1,0 -2,0 -3,1 0,1 -1,2 -1,4 0,1 1,2 1,3 1,1 2,1 3,1 0,0 1,0 2,-1 0,0 1,-1 1,-2z"/>
    <polygon id="8" class="fil1" points="366,108 376,108 376,109 372,109 372,120 370,120 370,109 366,109 "/>
    <path id="9" class="fil1" d="M377 114c0,-3 1,-4 2,-5 1,-1 2,-2 3,-2 2,0 3,1 4,2 2,1 2,3 2,4 0,2 0,3 -1,4 0,1 -1,2 -2,2 -1,1 -1,1 -3,1 -1,0 -3,-1 -4,-2 -1,-1 -1,-2 -1,-4zm2 0c0,1 0,2 1,3 1,1 1,1 2,1 1,0 2,0 3,-1 1,-1 1,-2 1,-3 0,-2 0,-3 -1,-4 -1,-1 -2,-1 -3,-1 -1,0 -1,0 -2,1 -1,1 -1,2 -1,4z"/>
    <path id="10" class="fil1" d="M390 108l2 0 0 5c1,0 2,0 2,-1 0,0 0,-1 1,-2 0,-1 1,-1 1,-2 0,0 0,0 1,0 0,0 1,0 1,0l1 0 0 1 -1 0c0,0 -1,0 -1,0 0,1 0,1 -1,2 0,1 0,1 0,2 -1,0 -1,0 -2,0 1,1 2,1 3,3l2 4 -2 0 -2 -4c-1,-1 -1,-1 -1,-2 -1,0 -1,0 -2,0l0 6 -2 0 0 -12z"/>
    <g id="Group-2">
     <path id="Combined-Shape" class="fil2" d="M35 123c1,2 3,4 5,5 2,1 4,2 6,2 2,0 4,-1 5,-2 2,-1 4,-3 5,-5l29 -58c3,-7 5,-13 5,-20 0,-12 -5,-23 -13,-31 -8,-8 -19,-13 -31,-13 -13,0 -24,5 -32,13 -8,8 -12,19 -12,31 0,7 1,13 4,20l29 58z"/>
     <g id="Group">
      <path id="Shape" class="fil3" d="M36 69c0,0 -1,0 -1,0 -1,0 -2,0 -3,-1 -2,-1 -3,-3 -3,-5 0,-1 0,-1 0,-2 0,-1 0,-2 0,-3 1,-1 1,-2 2,-3 1,-1 2,-2 2,-3 1,0 2,-1 3,-2 0,-1 1,-2 2,-3 0,-1 1,-2 2,-3 0,0 1,-1 1,-2 1,0 2,-1 3,-1 1,-1 1,-1 2,-1 1,0 2,0 3,0 1,1 2,1 3,2 1,1 1,2 2,2 1,1 1,2 2,3 0,1 1,2 2,3 0,1 1,1 2,2 1,1 2,2 2,3 1,1 2,2 2,3 0,1 0,2 1,3 0,1 -1,3 -1,4 -1,1 -2,2 -3,3 0,0 -1,1 -2,1 -1,0 -1,0 -1,0 0,0 0,0 0,0 0,0 0,0 0,0 0,0 -1,0 -1,0 0,0 0,0 0,0 0,0 0,0 -1,0 0,0 0,0 0,0 0,0 0,0 0,0 0,0 -1,0 -2,0 -1,0 -2,-1 -3,-1 -1,0 -2,-1 -3,-1 -1,0 -2,0 -2,0 -1,0 -1,0 -2,1 -1,0 -2,0 -3,0 -1,1 -2,1 -3,1 -1,0 -1,0 -2,0 0,0 0,0 0,0 0,0 0,0 0,0z"/>
      <path id="Shape_0" class="fil3" d="M56 22c2,0 3,1 4,2 1,1 1,2 1,3 0,0 0,1 0,2 0,2 0,4 -1,5 0,1 -1,2 -2,3 0,1 -1,1 -2,1 -1,1 -1,1 -2,1 -1,0 -2,-1 -3,-2 -1,0 -2,-1 -2,-2 0,-1 0,-2 0,-2 0,-1 0,-1 0,-2 0,-1 0,-2 0,-3 1,-2 1,-3 2,-4 1,-1 1,-1 2,-2 1,0 2,0 2,0 0,0 0,0 1,0 0,0 0,0 0,0 0,0 0,0 0,0 0,0 0,0 0,0 0,0 0,0 0,0 0,0 0,0 0,0 0,0 0,0 0,0z"/>
      <path id="Shape_1" class="fil3" d="M22 40c0,0 0,-1 0,-1 0,-1 1,-2 1,-3 1,0 2,-1 3,-1 1,0 2,0 2,0 1,0 2,1 3,1 1,1 2,3 2,4 0,1 1,2 1,2 0,1 0,1 0,1 0,1 0,2 0,3 -1,0 -1,1 -2,2 0,1 -1,1 -2,2 -1,0 -2,0 -3,-1 -1,0 -1,-1 -2,-1 -1,-1 -2,-2 -2,-3 0,-1 -1,-2 -1,-3 0,0 0,0 0,0 0,0 0,0 0,-1 0,0 0,0 0,0 0,0 0,0 0,0 0,0 0,0 0,0 0,-1 0,-1 0,-1 0,0 0,0 0,0z"/>
      <path id="Shape_2" class="fil3" d="M32 29c0,-1 0,-2 1,-4 0,0 1,-1 1,-2 1,-1 2,-1 3,-1 1,-1 1,-1 2,0 1,0 2,1 3,1 1,1 1,2 2,4 0,0 0,1 0,2 1,1 1,1 1,2 0,0 0,1 -1,2 0,1 0,2 -1,3 0,1 -1,1 -2,2 -1,0 -1,0 -2,0 -1,0 -2,0 -3,0 -1,-1 -1,-2 -2,-3 -1,-1 -1,-2 -1,-3 -1,-1 -1,-1 -1,-2 0,0 0,-1 0,-1z"/>
      <path id="Shape_3" class="fil3" d="M73 41c0,0 0,0 0,0 0,1 -1,3 -1,4 -1,1 -1,1 -2,2 -1,1 -2,2 -3,2 0,0 -1,1 -2,1 -1,-1 -2,-1 -3,-2 0,0 -1,-1 -1,-2 0,-1 -1,-2 -1,-2 1,-2 1,-4 2,-5 0,-1 1,-1 1,-2 1,-1 2,-1 3,-2 1,0 2,0 2,0 1,0 2,0 3,1 1,1 1,2 2,3 0,0 0,1 0,1 0,0 0,0 0,0 0,1 0,1 0,1z"/>
     </g>
    </g>
   </g>
  </g>
 </g>
</svg>
